<!-- Generator: Adobe Illustrator 23.0.1, SVG Export Plug-In  -->
<svg version="1.1" xmlns="http://www.w3.org/2000/svg" xmlns:xlink="http://www.w3.org/1999/xlink" x="0px" y="0px"
	 width="598.28px" height="66.64px" viewBox="0 0 598.28 66.64" style="enable-background:new 0 0 598.28 66.64;"
	 xml:space="preserve">
<style type="text/css">
	.st0{fill:#FFFFFF;}
</style>
<defs>
</defs>
<g>
	<path class="st0" d="M170.41,42.65h12.44c-0.95,5.82-6.89,9.66-15.7,9.66c-11.48,0-15.89-9.48-15.89-18.99c0-9.48,4.41-19,15.89-19
		c7.18,0,13.87,3.62,14.07,8.79h17.75C198.17,7.1,181.7,0,167.53,0c-20.67,0-33.99,14.77-33.99,33.32
		c0,18.57,13.33,33.32,33.99,33.32c6.32,0,14.06-1.9,18.5-7.33v6l13.01,0.04V30.28h-28.63V42.65z"/>
	<path class="st0" d="M227.48,1.24l-24.69,64.04h17.66l4.16-11.49h23.03l4.08,11.49h17.94L244.96,1.24H227.48z M228.6,41.4
		l7.48-22.4h0.19l7.31,22.4H228.6z"/>
	<path class="st0" d="M300.63,1.3h-27.59v64.04h27.59c19.51,0,31.48-13.08,31.48-32.29C332.11,13.96,320.35,1.3,300.63,1.3z
		 M297.67,51.02h-7.94V15.62h7.94c11.44,0,17.74,5.67,17.74,17.35C315.41,45.81,310.35,50.75,297.67,51.02z"/>
	<polygon class="st0" points="355.74,39.66 389.75,39.66 389.75,26.73 355.74,26.73 355.74,15.21 392.58,15.21 392.57,1.07 
		338.59,1.19 338.59,65.24 392.61,65.24 392.61,50.91 355.74,50.91 	"/>
	<polygon class="st0" points="417.13,1.19 399.98,1.19 399.98,65.24 445.41,65.24 445.41,50.91 417.13,50.91 	"/>
	<rect x="452.76" y="1.19" class="st0" width="17.17" height="64.05"/>
	<path class="st0" d="M517.99,39.73c0,8.25-3.17,12.48-11.62,12.48c-8.46,0-11.61-4.23-11.61-12.48V1.19h-17.17v37.58
		c0,18.54,8.78,27.76,28.78,27.76c20.01,0,28.77-9.22,28.77-27.76V1.19h-17.15V39.73z"/>
	<path class="st0" d="M579.18,26.7c-9.58-2.47-19.11-3.39-19.11-8.32c0-4.2,4.63-5.47,8.36-5.47c5.25,0,10.92,1.88,10.64,7.71h17.17
		C596.12,6.18,582.94,0,569.79,0C557.4,0,542.9,5.47,542.9,19.47c0,11.76,9.89,15.88,19.3,18.49c9.5,2.49,18.93,3.57,18.93,9.24
		c0,4.74-5.36,6.54-10.54,6.54c-7.3,0-12.11-2.43-12.47-9.97h-17.16c0.08,16.42,13.46,22.87,28.61,22.87
		c14.49,0,28.71-5.19,28.71-21.44C598.28,33.62,588.68,29.31,579.18,26.7z"/>
	<polygon class="st0" points="115.31,20.28 115.42,7.58 0,7.58 0,58.6 115.42,58.6 115.42,26.79 19.16,26.79 19.16,39.61 
		102.36,39.61 102.36,45.82 12.68,45.82 12.68,20.28 	"/>
</g>
</svg>
